<mxfile host="app.diagrams.net" agent="Mozilla/5.0 (Windows NT 10.0; Win64; x64) AppleWebKit/537.36 (KHTML, like Gecko) Chrome/133.0.0.0 Safari/537.36 OPR/118.0.0.0" version="27.0.8">
  <diagram name="Page-1" id="gy7M4bmDHyXo7VOeL3Qt">
    <mxGraphModel dx="2394" dy="859" grid="0" gridSize="10" guides="1" tooltips="1" connect="1" arrows="1" fold="1" page="0" pageScale="1" pageWidth="850" pageHeight="1100" math="0" shadow="0">
      <root>
        <mxCell id="0" />
        <mxCell id="1" parent="0" />
        <mxCell id="v6AVbfhbP2e-ezpRu952-1" value="PRODUCT" style="whiteSpace=wrap;html=1;align=center;" parent="1" vertex="1">
          <mxGeometry x="160" y="310" width="90" height="20" as="geometry" />
        </mxCell>
        <mxCell id="v6AVbfhbP2e-ezpRu952-5" value="VENDOR" style="whiteSpace=wrap;html=1;align=center;" parent="1" vertex="1">
          <mxGeometry x="610" y="567" width="90" height="18" as="geometry" />
        </mxCell>
        <mxCell id="v6AVbfhbP2e-ezpRu952-8" value="USER" style="whiteSpace=wrap;html=1;align=center;" parent="1" vertex="1">
          <mxGeometry x="-55" y="852.25" width="100" height="20" as="geometry" />
        </mxCell>
        <mxCell id="v6AVbfhbP2e-ezpRu952-13" value="&lt;u&gt;Product_ID&lt;/u&gt;" style="ellipse;whiteSpace=wrap;html=1;align=center;" parent="1" vertex="1">
          <mxGeometry x="100" y="230" width="80" height="30" as="geometry" />
        </mxCell>
        <mxCell id="v6AVbfhbP2e-ezpRu952-14" value="Name" style="ellipse;whiteSpace=wrap;html=1;align=center;direction=west;" parent="1" vertex="1">
          <mxGeometry x="60" y="400" width="70" height="30" as="geometry" />
        </mxCell>
        <mxCell id="v6AVbfhbP2e-ezpRu952-15" value="Description" style="ellipse;whiteSpace=wrap;html=1;align=center;" parent="1" vertex="1">
          <mxGeometry x="230" y="220" width="80" height="30" as="geometry" />
        </mxCell>
        <mxCell id="v6AVbfhbP2e-ezpRu952-16" value="Brand" style="ellipse;whiteSpace=wrap;html=1;align=center;" parent="1" vertex="1">
          <mxGeometry x="10" y="300" width="70" height="30" as="geometry" />
        </mxCell>
        <mxCell id="v6AVbfhbP2e-ezpRu952-18" value="Images" style="ellipse;shape=doubleEllipse;margin=3;whiteSpace=wrap;html=1;align=center;" parent="1" vertex="1">
          <mxGeometry x="340" y="240" width="80" height="40" as="geometry" />
        </mxCell>
        <mxCell id="v6AVbfhbP2e-ezpRu952-19" value="Category" style="ellipse;whiteSpace=wrap;html=1;align=center;" parent="1" vertex="1">
          <mxGeometry x="337.5" y="340" width="70" height="30" as="geometry" />
        </mxCell>
        <mxCell id="v6AVbfhbP2e-ezpRu952-20" value="" style="endArrow=none;html=1;rounded=0;exitX=0.5;exitY=1;exitDx=0;exitDy=0;entryX=0.134;entryY=0.023;entryDx=0;entryDy=0;entryPerimeter=0;" parent="1" source="v6AVbfhbP2e-ezpRu952-13" target="v6AVbfhbP2e-ezpRu952-1" edge="1">
          <mxGeometry width="50" height="50" relative="1" as="geometry">
            <mxPoint x="260" y="290" as="sourcePoint" />
            <mxPoint x="150" y="390" as="targetPoint" />
          </mxGeometry>
        </mxCell>
        <mxCell id="v6AVbfhbP2e-ezpRu952-21" value="" style="endArrow=none;html=1;rounded=0;exitX=0.5;exitY=1;exitDx=0;exitDy=0;entryX=0.086;entryY=1.007;entryDx=0;entryDy=0;entryPerimeter=0;" parent="1" source="v6AVbfhbP2e-ezpRu952-14" target="v6AVbfhbP2e-ezpRu952-1" edge="1">
          <mxGeometry width="50" height="50" relative="1" as="geometry">
            <mxPoint x="160" y="330" as="sourcePoint" />
            <mxPoint x="200" y="375" as="targetPoint" />
          </mxGeometry>
        </mxCell>
        <mxCell id="v6AVbfhbP2e-ezpRu952-22" value="" style="endArrow=none;html=1;rounded=0;exitX=0.971;exitY=0.626;exitDx=0;exitDy=0;exitPerimeter=0;entryX=0;entryY=0.5;entryDx=0;entryDy=0;" parent="1" source="v6AVbfhbP2e-ezpRu952-16" target="v6AVbfhbP2e-ezpRu952-1" edge="1">
          <mxGeometry width="50" height="50" relative="1" as="geometry">
            <mxPoint x="100" y="385" as="sourcePoint" />
            <mxPoint x="140" y="430" as="targetPoint" />
          </mxGeometry>
        </mxCell>
        <mxCell id="v6AVbfhbP2e-ezpRu952-23" value="" style="endArrow=none;html=1;rounded=0;exitX=0.5;exitY=1;exitDx=0;exitDy=0;entryX=1;entryY=0;entryDx=0;entryDy=0;" parent="1" source="v6AVbfhbP2e-ezpRu952-15" target="v6AVbfhbP2e-ezpRu952-1" edge="1">
          <mxGeometry width="50" height="50" relative="1" as="geometry">
            <mxPoint x="140" y="375" as="sourcePoint" />
            <mxPoint x="180" y="420" as="targetPoint" />
          </mxGeometry>
        </mxCell>
        <mxCell id="v6AVbfhbP2e-ezpRu952-24" value="" style="endArrow=none;html=1;rounded=0;exitX=0.107;exitY=0.819;exitDx=0;exitDy=0;exitPerimeter=0;entryX=1;entryY=0.5;entryDx=0;entryDy=0;" parent="1" source="v6AVbfhbP2e-ezpRu952-18" target="v6AVbfhbP2e-ezpRu952-1" edge="1">
          <mxGeometry width="50" height="50" relative="1" as="geometry">
            <mxPoint x="150" y="385" as="sourcePoint" />
            <mxPoint x="190" y="430" as="targetPoint" />
          </mxGeometry>
        </mxCell>
        <mxCell id="v6AVbfhbP2e-ezpRu952-25" value="" style="endArrow=none;html=1;rounded=0;exitX=0;exitY=0.5;exitDx=0;exitDy=0;entryX=1;entryY=0.75;entryDx=0;entryDy=0;" parent="1" source="v6AVbfhbP2e-ezpRu952-19" target="v6AVbfhbP2e-ezpRu952-1" edge="1">
          <mxGeometry width="50" height="50" relative="1" as="geometry">
            <mxPoint x="160" y="395" as="sourcePoint" />
            <mxPoint x="200" y="440" as="targetPoint" />
          </mxGeometry>
        </mxCell>
        <mxCell id="v6AVbfhbP2e-ezpRu952-34" value="" style="endArrow=none;html=1;rounded=0;exitX=0.5;exitY=1;exitDx=0;exitDy=0;entryX=0.455;entryY=0.167;entryDx=0;entryDy=0;entryPerimeter=0;" parent="1" source="v6AVbfhbP2e-ezpRu952-1" target="dRxTLHc9FrEJbW88lifj-78" edge="1">
          <mxGeometry width="50" height="50" relative="1" as="geometry">
            <mxPoint x="215" y="340" as="sourcePoint" />
            <mxPoint x="200" y="400" as="targetPoint" />
          </mxGeometry>
        </mxCell>
        <mxCell id="v6AVbfhbP2e-ezpRu952-36" value="Product_ID" style="ellipse;whiteSpace=wrap;html=1;align=center;" parent="1" vertex="1">
          <mxGeometry x="100" y="510" width="80" height="30" as="geometry" />
        </mxCell>
        <mxCell id="v6AVbfhbP2e-ezpRu952-37" value="" style="endArrow=none;html=1;rounded=0;exitX=0.686;exitY=0.979;exitDx=0;exitDy=0;entryX=0.04;entryY=0.004;entryDx=0;entryDy=0;exitPerimeter=0;entryPerimeter=0;" parent="1" source="v6AVbfhbP2e-ezpRu952-36" edge="1">
          <mxGeometry width="50" height="50" relative="1" as="geometry">
            <mxPoint x="225" y="530" as="sourcePoint" />
            <mxPoint x="173.5999999999999" y="572.0720000000001" as="targetPoint" />
          </mxGeometry>
        </mxCell>
        <mxCell id="v6AVbfhbP2e-ezpRu952-38" value="&lt;u&gt;Listing_ID&lt;/u&gt;" style="ellipse;whiteSpace=wrap;html=1;align=center;" parent="1" vertex="1">
          <mxGeometry x="70" y="650" width="80" height="30" as="geometry" />
        </mxCell>
        <mxCell id="v6AVbfhbP2e-ezpRu952-39" value="" style="endArrow=none;html=1;rounded=0;exitX=1;exitY=0.5;exitDx=0;exitDy=0;entryX=-0.005;entryY=0.619;entryDx=0;entryDy=0;entryPerimeter=0;" parent="1" source="v6AVbfhbP2e-ezpRu952-38" edge="1">
          <mxGeometry width="50" height="50" relative="1" as="geometry">
            <mxPoint x="115" y="569" as="sourcePoint" />
            <mxPoint x="169.54999999999973" y="583.142" as="targetPoint" />
          </mxGeometry>
        </mxCell>
        <mxCell id="v6AVbfhbP2e-ezpRu952-40" value="" style="endArrow=none;html=1;rounded=0;exitX=0.637;exitY=0;exitDx=0;exitDy=0;exitPerimeter=0;" parent="1" source="v6AVbfhbP2e-ezpRu952-41" edge="1">
          <mxGeometry width="50" height="50" relative="1" as="geometry">
            <mxPoint x="204" y="620" as="sourcePoint" />
            <mxPoint x="210" y="590" as="targetPoint" />
          </mxGeometry>
        </mxCell>
        <mxCell id="v6AVbfhbP2e-ezpRu952-41" value="Vendor_ID" style="ellipse;whiteSpace=wrap;html=1;align=center;" parent="1" vertex="1">
          <mxGeometry x="175" y="700" width="75" height="30" as="geometry" />
        </mxCell>
        <mxCell id="v6AVbfhbP2e-ezpRu952-42" value="Price" style="ellipse;whiteSpace=wrap;html=1;align=center;" parent="1" vertex="1">
          <mxGeometry x="215" y="493.07" width="75" height="30" as="geometry" />
        </mxCell>
        <mxCell id="v6AVbfhbP2e-ezpRu952-43" value="" style="endArrow=none;html=1;rounded=0;entryX=0.212;entryY=0.912;entryDx=0;entryDy=0;exitX=0.648;exitY=-0.019;exitDx=0;exitDy=0;exitPerimeter=0;entryPerimeter=0;" parent="1" target="v6AVbfhbP2e-ezpRu952-42" edge="1">
          <mxGeometry width="50" height="50" relative="1" as="geometry">
            <mxPoint x="228.3199999999997" y="571.6580000000001" as="sourcePoint" />
            <mxPoint x="214" y="600" as="targetPoint" />
          </mxGeometry>
        </mxCell>
        <mxCell id="v6AVbfhbP2e-ezpRu952-44" value="" style="endArrow=none;html=1;rounded=0;exitX=1.002;exitY=0.063;exitDx=0;exitDy=0;entryX=0.067;entryY=0.667;entryDx=0;entryDy=0;entryPerimeter=0;exitPerimeter=0;" parent="1" target="v6AVbfhbP2e-ezpRu952-45" edge="1">
          <mxGeometry width="50" height="50" relative="1" as="geometry">
            <mxPoint x="260.1800000000003" y="573.134" as="sourcePoint" />
            <mxPoint x="300" y="570" as="targetPoint" />
          </mxGeometry>
        </mxCell>
        <mxCell id="v6AVbfhbP2e-ezpRu952-45" value="Currency" style="ellipse;whiteSpace=wrap;html=1;align=center;" parent="1" vertex="1">
          <mxGeometry x="290" y="530" width="75" height="30" as="geometry" />
        </mxCell>
        <mxCell id="v6AVbfhbP2e-ezpRu952-46" value="In_Stock" style="ellipse;whiteSpace=wrap;html=1;align=center;" parent="1" vertex="1">
          <mxGeometry x="337.5" y="602" width="65" height="25" as="geometry" />
        </mxCell>
        <mxCell id="v6AVbfhbP2e-ezpRu952-47" value="" style="endArrow=none;html=1;rounded=0;exitX=1;exitY=0.75;exitDx=0;exitDy=0;entryX=0.014;entryY=0.356;entryDx=0;entryDy=0;entryPerimeter=0;" parent="1" target="v6AVbfhbP2e-ezpRu952-46" edge="1">
          <mxGeometry width="50" height="50" relative="1" as="geometry">
            <mxPoint x="260" y="585.5" as="sourcePoint" />
            <mxPoint x="305" y="572" as="targetPoint" />
          </mxGeometry>
        </mxCell>
        <mxCell id="v6AVbfhbP2e-ezpRu952-51" value="Last_Updated" style="ellipse;whiteSpace=wrap;html=1;align=center;" parent="1" vertex="1">
          <mxGeometry x="312.5" y="650" width="85" height="27.5" as="geometry" />
        </mxCell>
        <mxCell id="v6AVbfhbP2e-ezpRu952-52" value="" style="endArrow=none;html=1;rounded=0;entryX=0.901;entryY=0.996;entryDx=0;entryDy=0;entryPerimeter=0;exitX=0.275;exitY=0.056;exitDx=0;exitDy=0;exitPerimeter=0;" parent="1" source="v6AVbfhbP2e-ezpRu952-51" edge="1">
          <mxGeometry width="50" height="50" relative="1" as="geometry">
            <mxPoint x="235" y="650" as="sourcePoint" />
            <mxPoint x="251.09000000000015" y="589.9279999999999" as="targetPoint" />
          </mxGeometry>
        </mxCell>
        <mxCell id="v6AVbfhbP2e-ezpRu952-53" value="INITIATES" style="rhombus;whiteSpace=wrap;html=1;direction=west;" parent="1" vertex="1">
          <mxGeometry x="420" y="545.5" width="80" height="71" as="geometry" />
        </mxCell>
        <mxCell id="v6AVbfhbP2e-ezpRu952-56" value="" style="endArrow=none;html=1;rounded=0;exitX=0;exitY=0.5;exitDx=0;exitDy=0;entryX=0;entryY=0.75;entryDx=0;entryDy=0;" parent="1" source="v6AVbfhbP2e-ezpRu952-53" target="v6AVbfhbP2e-ezpRu952-5" edge="1">
          <mxGeometry width="50" height="50" relative="1" as="geometry">
            <mxPoint x="500" y="585" as="sourcePoint" />
            <mxPoint x="660" y="585" as="targetPoint" />
          </mxGeometry>
        </mxCell>
        <mxCell id="v6AVbfhbP2e-ezpRu952-58" value="&lt;u&gt;Vendor_ID&lt;/u&gt;" style="ellipse;whiteSpace=wrap;html=1;align=center;" parent="1" vertex="1">
          <mxGeometry x="570" y="475" width="75" height="30" as="geometry" />
        </mxCell>
        <mxCell id="v6AVbfhbP2e-ezpRu952-59" value="Name" style="ellipse;whiteSpace=wrap;html=1;align=center;direction=west;" parent="1" vertex="1">
          <mxGeometry x="680" y="480" width="70" height="30" as="geometry" />
        </mxCell>
        <mxCell id="v6AVbfhbP2e-ezpRu952-60" value="Website_URL" style="ellipse;whiteSpace=wrap;html=1;align=center;" parent="1" vertex="1">
          <mxGeometry x="615" y="635" width="85" height="27.5" as="geometry" />
        </mxCell>
        <mxCell id="v6AVbfhbP2e-ezpRu952-61" value="" style="endArrow=none;html=1;rounded=0;entryX=0.5;entryY=1;entryDx=0;entryDy=0;exitX=0.167;exitY=0.033;exitDx=0;exitDy=0;exitPerimeter=0;" parent="1" source="v6AVbfhbP2e-ezpRu952-5" target="v6AVbfhbP2e-ezpRu952-58" edge="1">
          <mxGeometry width="50" height="50" relative="1" as="geometry">
            <mxPoint x="630" y="560" as="sourcePoint" />
            <mxPoint x="620" y="591" as="targetPoint" />
          </mxGeometry>
        </mxCell>
        <mxCell id="v6AVbfhbP2e-ezpRu952-62" value="" style="endArrow=none;html=1;rounded=0;entryX=0.5;entryY=0;entryDx=0;entryDy=0;exitX=0.648;exitY=0.027;exitDx=0;exitDy=0;exitPerimeter=0;" parent="1" source="v6AVbfhbP2e-ezpRu952-5" target="v6AVbfhbP2e-ezpRu952-59" edge="1">
          <mxGeometry width="50" height="50" relative="1" as="geometry">
            <mxPoint x="635" y="578" as="sourcePoint" />
            <mxPoint x="618" y="515" as="targetPoint" />
          </mxGeometry>
        </mxCell>
        <mxCell id="v6AVbfhbP2e-ezpRu952-63" value="" style="endArrow=none;html=1;rounded=0;entryX=0.5;entryY=0;entryDx=0;entryDy=0;exitX=0.5;exitY=1;exitDx=0;exitDy=0;" parent="1" source="v6AVbfhbP2e-ezpRu952-5" target="v6AVbfhbP2e-ezpRu952-60" edge="1">
          <mxGeometry width="50" height="50" relative="1" as="geometry">
            <mxPoint x="678" y="577" as="sourcePoint" />
            <mxPoint x="725" y="520" as="targetPoint" />
          </mxGeometry>
        </mxCell>
        <mxCell id="v6AVbfhbP2e-ezpRu952-70" value="" style="endArrow=none;html=1;rounded=0;entryX=0.5;entryY=1;entryDx=0;entryDy=0;exitX=0;exitY=0.5;exitDx=0;exitDy=0;" parent="1" source="v6AVbfhbP2e-ezpRu952-8" target="dRxTLHc9FrEJbW88lifj-70" edge="1">
          <mxGeometry width="50" height="50" relative="1" as="geometry">
            <mxPoint x="-140" y="947.75" as="sourcePoint" />
            <mxPoint x="-160" y="751" as="targetPoint" />
          </mxGeometry>
        </mxCell>
        <mxCell id="v6AVbfhbP2e-ezpRu952-71" value="&lt;u&gt;Listing_ID&lt;/u&gt;" style="ellipse;whiteSpace=wrap;html=1;align=center;" parent="1" vertex="1">
          <mxGeometry x="-390" y="503.38" width="80" height="30" as="geometry" />
        </mxCell>
        <mxCell id="v6AVbfhbP2e-ezpRu952-72" value="&lt;u&gt;User_ID&lt;/u&gt;" style="ellipse;whiteSpace=wrap;html=1;align=center;" parent="1" vertex="1">
          <mxGeometry x="-385" y="558.88" width="80" height="30" as="geometry" />
        </mxCell>
        <mxCell id="v6AVbfhbP2e-ezpRu952-73" value="&lt;u&gt;Review_ID&lt;/u&gt;" style="ellipse;whiteSpace=wrap;html=1;align=center;" parent="1" vertex="1">
          <mxGeometry x="-380" y="616.13" width="80" height="30" as="geometry" />
        </mxCell>
        <mxCell id="v6AVbfhbP2e-ezpRu952-74" value="Rating" style="ellipse;whiteSpace=wrap;html=1;align=center;" parent="1" vertex="1">
          <mxGeometry x="-315" y="666.13" width="80" height="30" as="geometry" />
        </mxCell>
        <mxCell id="v6AVbfhbP2e-ezpRu952-75" value="Comment" style="ellipse;whiteSpace=wrap;html=1;align=center;" parent="1" vertex="1">
          <mxGeometry x="-110" y="646.13" width="80" height="30" as="geometry" />
        </mxCell>
        <mxCell id="v6AVbfhbP2e-ezpRu952-76" value="Date_Created" style="ellipse;whiteSpace=wrap;html=1;align=center;" parent="1" vertex="1">
          <mxGeometry x="-102.5" y="480" width="90" height="31.75" as="geometry" />
        </mxCell>
        <mxCell id="v6AVbfhbP2e-ezpRu952-77" value="" style="endArrow=none;html=1;rounded=0;exitX=0.958;exitY=0.692;exitDx=0;exitDy=0;exitPerimeter=0;entryX=0;entryY=0.25;entryDx=0;entryDy=0;" parent="1" source="v6AVbfhbP2e-ezpRu952-71" edge="1">
          <mxGeometry width="50" height="50" relative="1" as="geometry">
            <mxPoint x="-310.61394157530356" y="533.3810822945065" as="sourcePoint" />
            <mxPoint x="-255" y="565.2550000000001" as="targetPoint" />
          </mxGeometry>
        </mxCell>
        <mxCell id="v6AVbfhbP2e-ezpRu952-78" value="" style="endArrow=none;html=1;rounded=0;exitX=1;exitY=0.5;exitDx=0;exitDy=0;entryX=0.004;entryY=0.601;entryDx=0;entryDy=0;entryPerimeter=0;" parent="1" source="v6AVbfhbP2e-ezpRu952-72" edge="1">
          <mxGeometry width="50" height="50" relative="1" as="geometry">
            <mxPoint x="-303" y="534.13" as="sourcePoint" />
            <mxPoint x="-254.63999999999987" y="574.2055" as="targetPoint" />
          </mxGeometry>
        </mxCell>
        <mxCell id="v6AVbfhbP2e-ezpRu952-79" value="" style="endArrow=none;html=1;rounded=0;exitX=0.896;exitY=0.189;exitDx=0;exitDy=0;entryX=0.051;entryY=1.016;entryDx=0;entryDy=0;entryPerimeter=0;exitPerimeter=0;" parent="1" source="v6AVbfhbP2e-ezpRu952-73" edge="1">
          <mxGeometry width="50" height="50" relative="1" as="geometry">
            <mxPoint x="-295" y="584.13" as="sourcePoint" />
            <mxPoint x="-250.40999999999985" y="584.7880000000002" as="targetPoint" />
          </mxGeometry>
        </mxCell>
        <mxCell id="v6AVbfhbP2e-ezpRu952-80" value="" style="endArrow=none;html=1;rounded=0;exitX=0.526;exitY=-0.012;exitDx=0;exitDy=0;exitPerimeter=0;entryX=0.25;entryY=1;entryDx=0;entryDy=0;" parent="1" source="v6AVbfhbP2e-ezpRu952-74" edge="1">
          <mxGeometry width="50" height="50" relative="1" as="geometry">
            <mxPoint x="-298" y="632.13" as="sourcePoint" />
            <mxPoint x="-232.5" y="584.3800000000001" as="targetPoint" />
          </mxGeometry>
        </mxCell>
        <mxCell id="v6AVbfhbP2e-ezpRu952-81" value="" style="endArrow=none;html=1;rounded=0;exitX=0.388;exitY=0.022;exitDx=0;exitDy=0;exitPerimeter=0;entryX=1;entryY=0.75;entryDx=0;entryDy=0;" parent="1" source="v6AVbfhbP2e-ezpRu952-75" target="dRxTLHc9FrEJbW88lifj-61" edge="1">
          <mxGeometry width="50" height="50" relative="1" as="geometry">
            <mxPoint x="-263" y="676.13" as="sourcePoint" />
            <mxPoint x="-165" y="578.0050000000001" as="targetPoint" />
          </mxGeometry>
        </mxCell>
        <mxCell id="v6AVbfhbP2e-ezpRu952-82" value="" style="endArrow=none;html=1;rounded=0;exitX=0.108;exitY=0.196;exitDx=0;exitDy=0;exitPerimeter=0;entryX=0.942;entryY=-0.009;entryDx=0;entryDy=0;entryPerimeter=0;" parent="1" source="v6AVbfhbP2e-ezpRu952-76" edge="1">
          <mxGeometry width="50" height="50" relative="1" as="geometry">
            <mxPoint x="-159" y="677.13" as="sourcePoint" />
            <mxPoint x="-170.2199999999998" y="558.6505" as="targetPoint" />
          </mxGeometry>
        </mxCell>
        <mxCell id="v6AVbfhbP2e-ezpRu952-84" value="Name" style="ellipse;whiteSpace=wrap;html=1;align=center;direction=west;" parent="1" vertex="1">
          <mxGeometry x="45" y="796.75" width="70" height="30" as="geometry" />
        </mxCell>
        <mxCell id="v6AVbfhbP2e-ezpRu952-85" value="FName" style="ellipse;whiteSpace=wrap;html=1;align=center;direction=west;" parent="1" vertex="1">
          <mxGeometry x="30" y="740" width="70" height="30" as="geometry" />
        </mxCell>
        <mxCell id="v6AVbfhbP2e-ezpRu952-86" value="LName" style="ellipse;whiteSpace=wrap;html=1;align=center;direction=west;" parent="1" vertex="1">
          <mxGeometry x="110" y="750" width="70" height="30" as="geometry" />
        </mxCell>
        <mxCell id="v6AVbfhbP2e-ezpRu952-87" value="Email" style="ellipse;whiteSpace=wrap;html=1;align=center;direction=west;" parent="1" vertex="1">
          <mxGeometry x="-130" y="909.5" width="70" height="30" as="geometry" />
        </mxCell>
        <mxCell id="v6AVbfhbP2e-ezpRu952-88" value="Password" style="ellipse;whiteSpace=wrap;html=1;align=center;direction=west;" parent="1" vertex="1">
          <mxGeometry x="50" y="909.5" width="70" height="30" as="geometry" />
        </mxCell>
        <mxCell id="v6AVbfhbP2e-ezpRu952-90" value="" style="endArrow=none;html=1;rounded=0;entryX=0.534;entryY=0.002;entryDx=0;entryDy=0;entryPerimeter=0;exitX=0.65;exitY=-0.04;exitDx=0;exitDy=0;exitPerimeter=0;" parent="1" source="v6AVbfhbP2e-ezpRu952-8" target="v6AVbfhbP2e-ezpRu952-84" edge="1">
          <mxGeometry width="50" height="50" relative="1" as="geometry">
            <mxPoint x="-38" y="862.5" as="sourcePoint" />
            <mxPoint x="-69" y="809.5" as="targetPoint" />
          </mxGeometry>
        </mxCell>
        <mxCell id="v6AVbfhbP2e-ezpRu952-91" value="" style="endArrow=none;html=1;rounded=0;entryX=0.5;entryY=0;entryDx=0;entryDy=0;exitX=0.574;exitY=1.007;exitDx=0;exitDy=0;exitPerimeter=0;" parent="1" source="v6AVbfhbP2e-ezpRu952-84" target="v6AVbfhbP2e-ezpRu952-85" edge="1">
          <mxGeometry width="50" height="50" relative="1" as="geometry">
            <mxPoint x="20" y="861.5" as="sourcePoint" />
            <mxPoint x="28" y="836.5" as="targetPoint" />
          </mxGeometry>
        </mxCell>
        <mxCell id="v6AVbfhbP2e-ezpRu952-92" value="" style="endArrow=none;html=1;rounded=0;entryX=0.763;entryY=0.089;entryDx=0;entryDy=0;exitX=0.199;exitY=0.883;exitDx=0;exitDy=0;exitPerimeter=0;entryPerimeter=0;" parent="1" source="v6AVbfhbP2e-ezpRu952-84" target="v6AVbfhbP2e-ezpRu952-86" edge="1">
          <mxGeometry width="50" height="50" relative="1" as="geometry">
            <mxPoint x="25" y="806.5" as="sourcePoint" />
            <mxPoint x="10" y="770.5" as="targetPoint" />
          </mxGeometry>
        </mxCell>
        <mxCell id="v6AVbfhbP2e-ezpRu952-94" value="" style="endArrow=none;html=1;rounded=0;entryX=0.084;entryY=1.004;entryDx=0;entryDy=0;entryPerimeter=0;exitX=0.5;exitY=1;exitDx=0;exitDy=0;" parent="1" source="v6AVbfhbP2e-ezpRu952-87" target="v6AVbfhbP2e-ezpRu952-8" edge="1">
          <mxGeometry width="50" height="50" relative="1" as="geometry">
            <mxPoint x="20" y="861.5" as="sourcePoint" />
            <mxPoint x="28" y="836.5" as="targetPoint" />
          </mxGeometry>
        </mxCell>
        <mxCell id="v6AVbfhbP2e-ezpRu952-96" value="" style="endArrow=none;html=1;rounded=0;entryX=0.686;entryY=1.019;entryDx=0;entryDy=0;entryPerimeter=0;exitX=0.54;exitY=0.982;exitDx=0;exitDy=0;exitPerimeter=0;" parent="1" source="v6AVbfhbP2e-ezpRu952-88" target="v6AVbfhbP2e-ezpRu952-8" edge="1">
          <mxGeometry width="50" height="50" relative="1" as="geometry">
            <mxPoint x="-50" y="919.5" as="sourcePoint" />
            <mxPoint x="-37" y="882.5" as="targetPoint" />
          </mxGeometry>
        </mxCell>
        <mxCell id="v6AVbfhbP2e-ezpRu952-97" value="API_Key" style="ellipse;whiteSpace=wrap;html=1;align=center;direction=west;" parent="1" vertex="1">
          <mxGeometry x="85" y="872.25" width="70" height="20" as="geometry" />
        </mxCell>
        <mxCell id="v6AVbfhbP2e-ezpRu952-98" value="" style="endArrow=none;html=1;rounded=0;entryX=1.003;entryY=0.601;entryDx=0;entryDy=0;entryPerimeter=0;exitX=0.996;exitY=0.564;exitDx=0;exitDy=0;exitPerimeter=0;" parent="1" source="v6AVbfhbP2e-ezpRu952-97" target="v6AVbfhbP2e-ezpRu952-8" edge="1">
          <mxGeometry width="50" height="50" relative="1" as="geometry">
            <mxPoint x="47" y="930.5" as="sourcePoint" />
            <mxPoint x="24" y="882.5" as="targetPoint" />
          </mxGeometry>
        </mxCell>
        <mxCell id="dRxTLHc9FrEJbW88lifj-1" value="&lt;font style=&quot;font-size: 18px;&quot;&gt;1&lt;/font&gt;" style="text;html=1;align=center;verticalAlign=middle;whiteSpace=wrap;rounded=0;" parent="1" vertex="1">
          <mxGeometry x="-120" y="766.75" width="60" height="30" as="geometry" />
        </mxCell>
        <mxCell id="dRxTLHc9FrEJbW88lifj-3" value="&lt;font style=&quot;font-size: 18px;&quot;&gt;N&lt;/font&gt;" style="text;html=1;align=center;verticalAlign=middle;whiteSpace=wrap;rounded=0;" parent="1" vertex="1">
          <mxGeometry x="190" y="470" width="60" height="30" as="geometry" />
        </mxCell>
        <mxCell id="dRxTLHc9FrEJbW88lifj-7" value="&lt;font style=&quot;font-size: 18px;&quot;&gt;1&lt;/font&gt;" style="text;html=1;align=center;verticalAlign=middle;whiteSpace=wrap;rounded=0;" parent="1" vertex="1">
          <mxGeometry x="197.5" y="365" width="60" height="30" as="geometry" />
        </mxCell>
        <mxCell id="dRxTLHc9FrEJbW88lifj-14" value="&lt;font style=&quot;font-size: 18px;&quot;&gt;N&lt;/font&gt;" style="text;html=1;align=center;verticalAlign=middle;whiteSpace=wrap;rounded=0;" parent="1" vertex="1">
          <mxGeometry x="-220" y="650" width="60" height="30" as="geometry" />
        </mxCell>
        <mxCell id="dRxTLHc9FrEJbW88lifj-16" value="" style="endArrow=none;html=1;rounded=0;entryX=0;entryY=0.5;entryDx=0;entryDy=0;exitX=0;exitY=0.25;exitDx=0;exitDy=0;" parent="1" source="dRxTLHc9FrEJbW88lifj-73" edge="1">
          <mxGeometry width="50" height="50" relative="1" as="geometry">
            <mxPoint x="-110" y="460" as="sourcePoint" />
            <mxPoint x="50" y="576" as="targetPoint" />
          </mxGeometry>
        </mxCell>
        <mxCell id="dRxTLHc9FrEJbW88lifj-17" value="&lt;font style=&quot;font-size: 18px;&quot;&gt;1&lt;/font&gt;" style="text;html=1;align=center;verticalAlign=middle;whiteSpace=wrap;rounded=0;" parent="1" vertex="1">
          <mxGeometry x="80" y="545.5" width="60" height="30" as="geometry" />
        </mxCell>
        <mxCell id="dRxTLHc9FrEJbW88lifj-18" value="&lt;font style=&quot;font-size: 18px;&quot;&gt;N&lt;/font&gt;" style="text;html=1;align=center;verticalAlign=middle;whiteSpace=wrap;rounded=0;" parent="1" vertex="1">
          <mxGeometry x="-90" y="542" width="60" height="30" as="geometry" />
        </mxCell>
        <mxCell id="dRxTLHc9FrEJbW88lifj-20" value="" style="endArrow=none;html=1;rounded=0;exitX=1;exitY=0.5;exitDx=0;exitDy=0;entryX=1;entryY=0.5;entryDx=0;entryDy=0;" parent="1" target="v6AVbfhbP2e-ezpRu952-53" edge="1">
          <mxGeometry width="50" height="50" relative="1" as="geometry">
            <mxPoint x="260" y="581" as="sourcePoint" />
            <mxPoint x="440" y="581" as="targetPoint" />
          </mxGeometry>
        </mxCell>
        <mxCell id="dRxTLHc9FrEJbW88lifj-21" value="&lt;font style=&quot;font-size: 18px;&quot;&gt;N&lt;/font&gt;" style="text;html=1;align=center;verticalAlign=middle;whiteSpace=wrap;rounded=0;" parent="1" vertex="1">
          <mxGeometry x="365" y="550" width="60" height="30" as="geometry" />
        </mxCell>
        <mxCell id="dRxTLHc9FrEJbW88lifj-22" value="&lt;font style=&quot;font-size: 18px;&quot;&gt;1&lt;/font&gt;" style="text;html=1;align=center;verticalAlign=middle;whiteSpace=wrap;rounded=0;" parent="1" vertex="1">
          <mxGeometry x="510" y="550" width="60" height="30" as="geometry" />
        </mxCell>
        <mxCell id="dRxTLHc9FrEJbW88lifj-28" value="" style="shape=partialRectangle;whiteSpace=wrap;html=1;top=0;bottom=0;fillColor=none;" parent="1" vertex="1">
          <mxGeometry x="-12.5" y="872.25" width="5" height="137.75" as="geometry" />
        </mxCell>
        <mxCell id="dRxTLHc9FrEJbW88lifj-32" value="" style="ellipse;whiteSpace=wrap;html=1;aspect=fixed;" parent="1" vertex="1">
          <mxGeometry x="-30" y="1000" width="40" height="40" as="geometry" />
        </mxCell>
        <mxCell id="dRxTLHc9FrEJbW88lifj-33" value="&lt;font style=&quot;font-size: 18px;&quot;&gt;d&lt;/font&gt;" style="text;html=1;align=center;verticalAlign=middle;whiteSpace=wrap;rounded=0;" parent="1" vertex="1">
          <mxGeometry x="-40" y="1005" width="60" height="30" as="geometry" />
        </mxCell>
        <mxCell id="dRxTLHc9FrEJbW88lifj-34" value="" style="endArrow=none;html=1;rounded=0;entryX=0.5;entryY=0;entryDx=0;entryDy=0;" parent="1" source="dRxTLHc9FrEJbW88lifj-47" edge="1">
          <mxGeometry width="50" height="50" relative="1" as="geometry">
            <mxPoint x="70" y="1146" as="sourcePoint" />
            <mxPoint x="5" y="1035" as="targetPoint" />
          </mxGeometry>
        </mxCell>
        <mxCell id="dRxTLHc9FrEJbW88lifj-35" value="" style="endArrow=none;html=1;rounded=0;entryX=0.25;entryY=1;entryDx=0;entryDy=0;exitX=0.816;exitY=0.101;exitDx=0;exitDy=0;exitPerimeter=0;" parent="1" source="dRxTLHc9FrEJbW88lifj-58" target="dRxTLHc9FrEJbW88lifj-33" edge="1">
          <mxGeometry width="50" height="50" relative="1" as="geometry">
            <mxPoint x="-100" y="1150" as="sourcePoint" />
            <mxPoint x="15" y="1045" as="targetPoint" />
          </mxGeometry>
        </mxCell>
        <mxCell id="dRxTLHc9FrEJbW88lifj-36" value="ADMIN" style="whiteSpace=wrap;html=1;align=center;" parent="1" vertex="1">
          <mxGeometry x="65" y="1147" width="90" height="18" as="geometry" />
        </mxCell>
        <mxCell id="dRxTLHc9FrEJbW88lifj-37" value="&lt;u&gt;Admin_ID&lt;/u&gt;" style="ellipse;whiteSpace=wrap;html=1;align=center;" parent="1" vertex="1">
          <mxGeometry x="90" y="1060" width="75" height="30" as="geometry" />
        </mxCell>
        <mxCell id="dRxTLHc9FrEJbW88lifj-40" value="" style="endArrow=none;html=1;rounded=0;entryX=0.5;entryY=1;entryDx=0;entryDy=0;exitX=0.5;exitY=0;exitDx=0;exitDy=0;" parent="1" source="dRxTLHc9FrEJbW88lifj-36" target="dRxTLHc9FrEJbW88lifj-37" edge="1">
          <mxGeometry width="50" height="50" relative="1" as="geometry">
            <mxPoint x="85" y="1140" as="sourcePoint" />
            <mxPoint x="75" y="1171" as="targetPoint" />
          </mxGeometry>
        </mxCell>
        <mxCell id="dRxTLHc9FrEJbW88lifj-43" value="&lt;font style=&quot;font-size: 18px;&quot;&gt;U&lt;/font&gt;" style="text;html=1;align=center;verticalAlign=middle;whiteSpace=wrap;rounded=0;rotation=30;" parent="1" vertex="1">
          <mxGeometry x="-80" y="1075" width="40" height="20" as="geometry" />
        </mxCell>
        <mxCell id="dRxTLHc9FrEJbW88lifj-57" value="" style="endArrow=none;html=1;rounded=0;entryX=0.5;entryY=0;entryDx=0;entryDy=0;" parent="1" target="dRxTLHc9FrEJbW88lifj-47" edge="1">
          <mxGeometry width="50" height="50" relative="1" as="geometry">
            <mxPoint x="70" y="1146" as="sourcePoint" />
            <mxPoint x="5" y="1035" as="targetPoint" />
          </mxGeometry>
        </mxCell>
        <mxCell id="dRxTLHc9FrEJbW88lifj-47" value="&lt;font style=&quot;font-size: 18px;&quot;&gt;U&lt;/font&gt;" style="text;html=1;align=center;verticalAlign=middle;whiteSpace=wrap;rounded=0;rotation=-30;" parent="1" vertex="1">
          <mxGeometry x="20" y="1080" width="40" height="20" as="geometry" />
        </mxCell>
        <mxCell id="dRxTLHc9FrEJbW88lifj-58" value="CUSTOMER" style="whiteSpace=wrap;html=1;align=center;" parent="1" vertex="1">
          <mxGeometry x="-165" y="1130" width="90" height="18" as="geometry" />
        </mxCell>
        <mxCell id="dRxTLHc9FrEJbW88lifj-59" value="&lt;u&gt;Customer_ID&lt;/u&gt;" style="ellipse;whiteSpace=wrap;html=1;align=center;" parent="1" vertex="1">
          <mxGeometry x="-190" y="1045" width="80" height="30" as="geometry" />
        </mxCell>
        <mxCell id="dRxTLHc9FrEJbW88lifj-60" value="" style="endArrow=none;html=1;rounded=0;entryX=0.5;entryY=1;entryDx=0;entryDy=0;exitX=0.167;exitY=0.033;exitDx=0;exitDy=0;exitPerimeter=0;" parent="1" source="dRxTLHc9FrEJbW88lifj-58" target="dRxTLHc9FrEJbW88lifj-59" edge="1">
          <mxGeometry width="50" height="50" relative="1" as="geometry">
            <mxPoint x="-165" y="1140" as="sourcePoint" />
            <mxPoint x="-175" y="1171" as="targetPoint" />
          </mxGeometry>
        </mxCell>
        <mxCell id="dRxTLHc9FrEJbW88lifj-61" value="REVIEW" style="shape=ext;margin=3;double=1;whiteSpace=wrap;html=1;align=center;" parent="1" vertex="1">
          <mxGeometry x="-265" y="553.88" width="100" height="40" as="geometry" />
        </mxCell>
        <mxCell id="dRxTLHc9FrEJbW88lifj-66" value="" style="shape=partialRectangle;whiteSpace=wrap;html=1;top=0;bottom=0;fillColor=none;rotation=90;" parent="1" vertex="1">
          <mxGeometry x="-97.5" y="505" width="5" height="137.75" as="geometry" />
        </mxCell>
        <mxCell id="dRxTLHc9FrEJbW88lifj-68" value="" style="shape=partialRectangle;whiteSpace=wrap;html=1;top=0;bottom=0;fillColor=none;rotation=161;" parent="1" vertex="1">
          <mxGeometry x="-179.01" y="591.09" width="5" height="97.75" as="geometry" />
        </mxCell>
        <mxCell id="dRxTLHc9FrEJbW88lifj-70" value="MAKES" style="shape=rhombus;double=1;perimeter=rhombusPerimeter;whiteSpace=wrap;html=1;align=center;" parent="1" vertex="1">
          <mxGeometry x="-222.5" y="685.59" width="130" height="81.16" as="geometry" />
        </mxCell>
        <mxCell id="dRxTLHc9FrEJbW88lifj-74" value="" style="endArrow=none;html=1;rounded=0;entryX=0;entryY=0.5;entryDx=0;entryDy=0;exitX=0;exitY=0.25;exitDx=0;exitDy=0;" parent="1" target="dRxTLHc9FrEJbW88lifj-73" edge="1">
          <mxGeometry width="50" height="50" relative="1" as="geometry">
            <mxPoint x="170" y="576.5" as="sourcePoint" />
            <mxPoint x="50" y="576" as="targetPoint" />
          </mxGeometry>
        </mxCell>
        <mxCell id="dRxTLHc9FrEJbW88lifj-73" value="HAS" style="shape=rhombus;double=1;perimeter=rhombusPerimeter;whiteSpace=wrap;html=1;align=center;" parent="1" vertex="1">
          <mxGeometry x="-40" y="542" width="110" height="60" as="geometry" />
        </mxCell>
        <mxCell id="dRxTLHc9FrEJbW88lifj-77" value="LISTING" style="shape=ext;margin=3;double=1;whiteSpace=wrap;html=1;align=center;" parent="1" vertex="1">
          <mxGeometry x="162.5" y="562" width="100" height="40" as="geometry" />
        </mxCell>
        <mxCell id="dRxTLHc9FrEJbW88lifj-78" value="HAS" style="shape=rhombus;double=1;perimeter=rhombusPerimeter;whiteSpace=wrap;html=1;align=center;" parent="1" vertex="1">
          <mxGeometry x="140" y="400" width="110" height="60" as="geometry" />
        </mxCell>
        <mxCell id="dRxTLHc9FrEJbW88lifj-79" value="" style="shape=partialRectangle;whiteSpace=wrap;html=1;top=0;bottom=0;fillColor=none;" parent="1" vertex="1">
          <mxGeometry x="192.5" y="456.13" width="5" height="103.87" as="geometry" />
        </mxCell>
        <mxCell id="dRxTLHc9FrEJbW88lifj-81" value="Num_Products" style="ellipse;whiteSpace=wrap;html=1;align=center;" parent="1" vertex="1">
          <mxGeometry x="150" y="160" width="160" height="40" as="geometry" />
        </mxCell>
        <mxCell id="dRxTLHc9FrEJbW88lifj-82" value="" style="endArrow=none;html=1;rounded=0;exitX=0.356;exitY=0.962;exitDx=0;exitDy=0;entryX=0.411;entryY=0.05;entryDx=0;entryDy=0;entryPerimeter=0;exitPerimeter=0;" parent="1" source="dRxTLHc9FrEJbW88lifj-81" target="v6AVbfhbP2e-ezpRu952-1" edge="1">
          <mxGeometry width="50" height="50" relative="1" as="geometry">
            <mxPoint x="150" y="270" as="sourcePoint" />
            <mxPoint x="182" y="320" as="targetPoint" />
          </mxGeometry>
        </mxCell>
        <mxCell id="JFSD5BFborrNH-VHxR0L-1" value="&lt;b&gt;PRODUCTS&lt;/b&gt;" style="text;html=1;align=center;verticalAlign=middle;resizable=0;points=[];autosize=1;strokeColor=none;fillColor=none;" parent="1" vertex="1">
          <mxGeometry x="-540" y="1230" width="90" height="30" as="geometry" />
        </mxCell>
        <mxCell id="JFSD5BFborrNH-VHxR0L-2" value="&lt;b&gt;REVIEW&lt;/b&gt;" style="text;html=1;align=center;verticalAlign=middle;resizable=0;points=[];autosize=1;strokeColor=none;fillColor=none;" parent="1" vertex="1">
          <mxGeometry x="-541.25" y="1320" width="70" height="30" as="geometry" />
        </mxCell>
        <mxCell id="JFSD5BFborrNH-VHxR0L-3" value="&lt;b&gt;USER&lt;/b&gt;" style="text;html=1;align=center;verticalAlign=middle;resizable=0;points=[];autosize=1;strokeColor=none;fillColor=none;" parent="1" vertex="1">
          <mxGeometry x="-520" y="1400" width="60" height="30" as="geometry" />
        </mxCell>
        <mxCell id="JFSD5BFborrNH-VHxR0L-4" value="&lt;b&gt;CUSTOMER&lt;/b&gt;" style="text;html=1;align=center;verticalAlign=middle;resizable=0;points=[];autosize=1;strokeColor=none;fillColor=none;" parent="1" vertex="1">
          <mxGeometry x="-525" y="1480" width="90" height="30" as="geometry" />
        </mxCell>
        <mxCell id="JFSD5BFborrNH-VHxR0L-5" value="&lt;b&gt;ADMIN&lt;/b&gt;" style="text;html=1;align=center;verticalAlign=middle;resizable=0;points=[];autosize=1;strokeColor=none;fillColor=none;" parent="1" vertex="1">
          <mxGeometry x="-117.5" y="1480" width="60" height="30" as="geometry" />
        </mxCell>
        <mxCell id="JFSD5BFborrNH-VHxR0L-6" value="&lt;b&gt;LISTING&lt;/b&gt;" style="text;html=1;align=center;verticalAlign=middle;resizable=0;points=[];autosize=1;strokeColor=none;fillColor=none;" parent="1" vertex="1">
          <mxGeometry x="-525" y="1560" width="70" height="30" as="geometry" />
        </mxCell>
        <mxCell id="JFSD5BFborrNH-VHxR0L-12" value="&lt;u&gt;Product_ID&lt;/u&gt;" style="rounded=0;whiteSpace=wrap;html=1;" parent="1" vertex="1">
          <mxGeometry x="-530" y="1260" width="100" height="20" as="geometry" />
        </mxCell>
        <mxCell id="JFSD5BFborrNH-VHxR0L-13" value="Brand" style="rounded=0;whiteSpace=wrap;html=1;" parent="1" vertex="1">
          <mxGeometry x="-430" y="1260" width="70" height="20" as="geometry" />
        </mxCell>
        <mxCell id="JFSD5BFborrNH-VHxR0L-14" value="Description" style="rounded=0;whiteSpace=wrap;html=1;" parent="1" vertex="1">
          <mxGeometry x="-360" y="1260" width="70" height="20" as="geometry" />
        </mxCell>
        <mxCell id="JFSD5BFborrNH-VHxR0L-15" value="Name" style="rounded=0;whiteSpace=wrap;html=1;" parent="1" vertex="1">
          <mxGeometry x="-295" y="1260" width="45" height="20" as="geometry" />
        </mxCell>
        <mxCell id="JFSD5BFborrNH-VHxR0L-16" value="Category" style="rounded=0;whiteSpace=wrap;html=1;" parent="1" vertex="1">
          <mxGeometry x="-250" y="1260" width="90" height="20" as="geometry" />
        </mxCell>
        <mxCell id="JFSD5BFborrNH-VHxR0L-19" value="Num_Products" style="rounded=0;whiteSpace=wrap;html=1;" parent="1" vertex="1">
          <mxGeometry x="-158.75" y="1260" width="103.75" height="20" as="geometry" />
        </mxCell>
        <mxCell id="JFSD5BFborrNH-VHxR0L-22" value="&lt;u&gt;Review_ID&lt;/u&gt;" style="rounded=0;whiteSpace=wrap;html=1;" parent="1" vertex="1">
          <mxGeometry x="-530" y="1350" width="70" height="20" as="geometry" />
        </mxCell>
        <mxCell id="JFSD5BFborrNH-VHxR0L-23" value="&lt;u&gt;User_ID&lt;/u&gt;" style="rounded=0;whiteSpace=wrap;html=1;" parent="1" vertex="1">
          <mxGeometry x="-460" y="1350" width="70" height="20" as="geometry" />
        </mxCell>
        <mxCell id="JFSD5BFborrNH-VHxR0L-24" value="Rating" style="rounded=0;whiteSpace=wrap;html=1;" parent="1" vertex="1">
          <mxGeometry x="-390" y="1350" width="90" height="20" as="geometry" />
        </mxCell>
        <mxCell id="JFSD5BFborrNH-VHxR0L-25" value="Date_Created" style="rounded=0;whiteSpace=wrap;html=1;" parent="1" vertex="1">
          <mxGeometry x="-302.5" y="1350" width="112.5" height="20" as="geometry" />
        </mxCell>
        <mxCell id="JFSD5BFborrNH-VHxR0L-26" value="Comments" style="rounded=0;whiteSpace=wrap;html=1;" parent="1" vertex="1">
          <mxGeometry x="-190" y="1350" width="72.5" height="20" as="geometry" />
        </mxCell>
        <mxCell id="JFSD5BFborrNH-VHxR0L-29" style="edgeStyle=orthogonalEdgeStyle;rounded=0;orthogonalLoop=1;jettySize=auto;html=1;exitX=1;exitY=0.5;exitDx=0;exitDy=0;entryX=0.405;entryY=1.014;entryDx=0;entryDy=0;entryPerimeter=0;" parent="1" target="JFSD5BFborrNH-VHxR0L-23" edge="1">
          <mxGeometry relative="1" as="geometry">
            <mxPoint x="-410" y="1380" as="targetPoint" />
            <mxPoint x="-453.5" y="1439.94" as="sourcePoint" />
            <Array as="points">
              <mxPoint x="-454" y="1430" />
              <mxPoint x="-450" y="1430" />
              <mxPoint x="-450" y="1390" />
              <mxPoint x="-432" y="1390" />
            </Array>
          </mxGeometry>
        </mxCell>
        <mxCell id="JFSD5BFborrNH-VHxR0L-30" value="&lt;u&gt;User_ID&lt;/u&gt;" style="rounded=0;whiteSpace=wrap;html=1;" parent="1" vertex="1">
          <mxGeometry x="-530" y="1430" width="100" height="20" as="geometry" />
        </mxCell>
        <mxCell id="JFSD5BFborrNH-VHxR0L-31" value="&lt;u&gt;Customer_ID&lt;/u&gt;" style="rounded=0;whiteSpace=wrap;html=1;" parent="1" vertex="1">
          <mxGeometry x="-436.25" y="1510" width="90" height="20" as="geometry" />
        </mxCell>
        <mxCell id="JFSD5BFborrNH-VHxR0L-34" value="&lt;u&gt;Admin_ID&lt;/u&gt;" style="rounded=0;whiteSpace=wrap;html=1;" parent="1" vertex="1">
          <mxGeometry x="-68.13" y="1510" width="107.5" height="20" as="geometry" />
        </mxCell>
        <mxCell id="JFSD5BFborrNH-VHxR0L-35" value="&lt;u&gt;Listing_ID&lt;/u&gt;" style="rounded=0;whiteSpace=wrap;html=1;" parent="1" vertex="1">
          <mxGeometry x="-530" y="1590" width="110" height="20" as="geometry" />
        </mxCell>
        <mxCell id="JFSD5BFborrNH-VHxR0L-36" value="Price" style="rounded=0;whiteSpace=wrap;html=1;" parent="1" vertex="1">
          <mxGeometry x="-420" y="1590" width="110" height="20" as="geometry" />
        </mxCell>
        <mxCell id="JFSD5BFborrNH-VHxR0L-37" value="Currency" style="rounded=0;whiteSpace=wrap;html=1;" parent="1" vertex="1">
          <mxGeometry x="-309.37" y="1590" width="110" height="20" as="geometry" />
        </mxCell>
        <mxCell id="JFSD5BFborrNH-VHxR0L-38" value="In_Stock" style="rounded=0;whiteSpace=wrap;html=1;" parent="1" vertex="1">
          <mxGeometry x="-200" y="1590" width="110" height="20" as="geometry" />
        </mxCell>
        <mxCell id="JFSD5BFborrNH-VHxR0L-39" value="Last_Updated" style="rounded=0;whiteSpace=wrap;html=1;" parent="1" vertex="1">
          <mxGeometry x="-92.5" y="1590" width="82.5" height="20" as="geometry" />
        </mxCell>
        <mxCell id="JFSD5BFborrNH-VHxR0L-40" style="edgeStyle=orthogonalEdgeStyle;rounded=0;orthogonalLoop=1;jettySize=auto;html=1;entryX=0.636;entryY=1.126;entryDx=0;entryDy=0;entryPerimeter=0;" parent="1" source="JFSD5BFborrNH-VHxR0L-41" target="JFSD5BFborrNH-VHxR0L-12" edge="1">
          <mxGeometry relative="1" as="geometry">
            <mxPoint x="-120" y="1290" as="targetPoint" />
            <Array as="points">
              <mxPoint x="40" y="1570" />
              <mxPoint x="270" y="1570" />
              <mxPoint x="270" y="1300" />
              <mxPoint x="-466" y="1300" />
            </Array>
          </mxGeometry>
        </mxCell>
        <mxCell id="JFSD5BFborrNH-VHxR0L-41" value="&lt;u&gt;Product_ID&lt;/u&gt;" style="rounded=0;whiteSpace=wrap;html=1;" parent="1" vertex="1">
          <mxGeometry x="-10" y="1590" width="100" height="20" as="geometry" />
        </mxCell>
        <mxCell id="JFSD5BFborrNH-VHxR0L-61" style="edgeStyle=orthogonalEdgeStyle;rounded=0;orthogonalLoop=1;jettySize=auto;html=1;exitX=0.25;exitY=1;exitDx=0;exitDy=0;entryX=0.75;entryY=0;entryDx=0;entryDy=0;" parent="1" source="JFSD5BFborrNH-VHxR0L-107" target="JFSD5BFborrNH-VHxR0L-77" edge="1">
          <mxGeometry relative="1" as="geometry">
            <mxPoint x="210" y="1660" as="targetPoint" />
            <Array as="points">
              <mxPoint x="118" y="1630" />
              <mxPoint x="-447" y="1630" />
            </Array>
            <mxPoint x="-260" y="1640" as="sourcePoint" />
          </mxGeometry>
        </mxCell>
        <mxCell id="JFSD5BFborrNH-VHxR0L-72" style="edgeStyle=orthogonalEdgeStyle;rounded=0;orthogonalLoop=1;jettySize=auto;html=1;entryX=0;entryY=0.5;entryDx=0;entryDy=0;" parent="1" source="JFSD5BFborrNH-VHxR0L-73" target="JFSD5BFborrNH-VHxR0L-30" edge="1">
          <mxGeometry relative="1" as="geometry">
            <mxPoint x="-560" y="1430" as="targetPoint" />
            <Array as="points">
              <mxPoint x="-560" y="1520" />
              <mxPoint x="-560" y="1440" />
            </Array>
          </mxGeometry>
        </mxCell>
        <mxCell id="JFSD5BFborrNH-VHxR0L-73" value="&lt;u&gt;User_ID&lt;/u&gt;" style="rounded=0;whiteSpace=wrap;html=1;" parent="1" vertex="1">
          <mxGeometry x="-532.5" y="1510" width="100" height="20" as="geometry" />
        </mxCell>
        <mxCell id="JFSD5BFborrNH-VHxR0L-74" style="edgeStyle=orthogonalEdgeStyle;rounded=0;orthogonalLoop=1;jettySize=auto;html=1;exitX=0;exitY=0.5;exitDx=0;exitDy=0;entryX=0.5;entryY=1;entryDx=0;entryDy=0;" parent="1" source="JFSD5BFborrNH-VHxR0L-75" target="JFSD5BFborrNH-VHxR0L-30" edge="1">
          <mxGeometry relative="1" as="geometry">
            <mxPoint x="-480" y="1460" as="targetPoint" />
            <Array as="points">
              <mxPoint x="-199" y="1520" />
              <mxPoint x="-199" y="1480" />
              <mxPoint x="-480" y="1480" />
            </Array>
          </mxGeometry>
        </mxCell>
        <mxCell id="JFSD5BFborrNH-VHxR0L-75" value="&lt;u&gt;User_ID&lt;/u&gt;" style="rounded=0;whiteSpace=wrap;html=1;" parent="1" vertex="1">
          <mxGeometry x="-168.75" y="1510" width="100" height="20" as="geometry" />
        </mxCell>
        <mxCell id="JFSD5BFborrNH-VHxR0L-76" value="&lt;p class=&quot;MsoNormal&quot;&gt;&lt;b&gt;VENDOR&lt;/b&gt;&lt;/p&gt;" style="text;whiteSpace=wrap;html=1;" parent="1" vertex="1">
          <mxGeometry x="-531.25" y="1610" width="100" height="60" as="geometry" />
        </mxCell>
        <mxCell id="JFSD5BFborrNH-VHxR0L-77" value="&lt;u&gt;Vendor_ID&lt;/u&gt;" style="rounded=0;whiteSpace=wrap;html=1;" parent="1" vertex="1">
          <mxGeometry x="-530" y="1650" width="110" height="20" as="geometry" />
        </mxCell>
        <mxCell id="JFSD5BFborrNH-VHxR0L-95" value="&lt;u&gt;User_ID&lt;/u&gt;" style="ellipse;whiteSpace=wrap;html=1;align=center;" parent="1" vertex="1">
          <mxGeometry x="-60" y="780" width="80" height="30" as="geometry" />
        </mxCell>
        <mxCell id="JFSD5BFborrNH-VHxR0L-96" value="" style="endArrow=none;html=1;rounded=0;entryX=0.617;entryY=1.073;entryDx=0;entryDy=0;exitX=0.434;exitY=-0.003;exitDx=0;exitDy=0;exitPerimeter=0;entryPerimeter=0;" parent="1" source="v6AVbfhbP2e-ezpRu952-8" target="JFSD5BFborrNH-VHxR0L-95" edge="1">
          <mxGeometry width="50" height="50" relative="1" as="geometry">
            <mxPoint x="85" y="807" as="sourcePoint" />
            <mxPoint x="75" y="780" as="targetPoint" />
          </mxGeometry>
        </mxCell>
        <mxCell id="JFSD5BFborrNH-VHxR0L-98" value="FName" style="whiteSpace=wrap;html=1;rounded=0;" parent="1" vertex="1">
          <mxGeometry x="-429.37" y="1430" width="79.37" height="20" as="geometry" />
        </mxCell>
        <mxCell id="JFSD5BFborrNH-VHxR0L-100" value="LName" style="whiteSpace=wrap;html=1;rounded=0;" parent="1" vertex="1">
          <mxGeometry x="-350" y="1430" width="120" height="20" as="geometry" />
        </mxCell>
        <mxCell id="JFSD5BFborrNH-VHxR0L-103" value="API_Key" style="whiteSpace=wrap;html=1;rounded=0;" parent="1" vertex="1">
          <mxGeometry x="-231.25" y="1430" width="120" height="20" as="geometry" />
        </mxCell>
        <mxCell id="JFSD5BFborrNH-VHxR0L-104" value="Password" style="whiteSpace=wrap;html=1;rounded=0;" parent="1" vertex="1">
          <mxGeometry x="-111.25" y="1430" width="120" height="20" as="geometry" />
        </mxCell>
        <mxCell id="JFSD5BFborrNH-VHxR0L-105" value="Email" style="whiteSpace=wrap;html=1;rounded=0;" parent="1" vertex="1">
          <mxGeometry x="8.129999999999999" y="1430" width="120" height="20" as="geometry" />
        </mxCell>
        <mxCell id="JFSD5BFborrNH-VHxR0L-107" value="&lt;u&gt;Vendor_ID&lt;/u&gt;" style="rounded=0;whiteSpace=wrap;html=1;" parent="1" vertex="1">
          <mxGeometry x="90" y="1590" width="110" height="20" as="geometry" />
        </mxCell>
        <mxCell id="JFSD5BFborrNH-VHxR0L-109" value="Name" style="rounded=0;whiteSpace=wrap;html=1;" parent="1" vertex="1">
          <mxGeometry x="-421.25" y="1650" width="100" height="20" as="geometry" />
        </mxCell>
        <mxCell id="JFSD5BFborrNH-VHxR0L-110" value="Website_URL" style="rounded=0;whiteSpace=wrap;html=1;" parent="1" vertex="1">
          <mxGeometry x="-320.62" y="1650" width="100" height="20" as="geometry" />
        </mxCell>
        <mxCell id="JFSD5BFborrNH-VHxR0L-115" value="&lt;u&gt;Listing_ID&lt;/u&gt;" style="rounded=0;whiteSpace=wrap;html=1;" parent="1" vertex="1">
          <mxGeometry x="-118.75" y="1350" width="106.25" height="20" as="geometry" />
        </mxCell>
        <mxCell id="JFSD5BFborrNH-VHxR0L-116" style="edgeStyle=orthogonalEdgeStyle;rounded=0;orthogonalLoop=1;jettySize=auto;html=1;entryX=0.863;entryY=-0.049;entryDx=0;entryDy=0;entryPerimeter=0;exitX=1;exitY=0.75;exitDx=0;exitDy=0;" parent="1" target="JFSD5BFborrNH-VHxR0L-35" edge="1" source="JFSD5BFborrNH-VHxR0L-115">
          <mxGeometry relative="1" as="geometry">
            <mxPoint x="-430" y="1570" as="targetPoint" />
            <Array as="points">
              <mxPoint x="-10" y="1365" />
              <mxPoint x="-10" y="1360" />
              <mxPoint x="160" y="1360" />
              <mxPoint x="160" y="1550" />
              <mxPoint x="-435" y="1550" />
            </Array>
            <mxPoint x="-92" y="1360" as="sourcePoint" />
          </mxGeometry>
        </mxCell>
        <mxCell id="uH4h39baSTS1XD-_8lwv-1" value="WISHLIST" style="whiteSpace=wrap;html=1;align=center;" parent="1" vertex="1">
          <mxGeometry x="570" y="300" width="90" height="20" as="geometry" />
        </mxCell>
        <mxCell id="uH4h39baSTS1XD-_8lwv-2" value="INITIATES" style="rhombus;whiteSpace=wrap;html=1;direction=west;" parent="1" vertex="1">
          <mxGeometry x="425" y="379" width="80" height="71" as="geometry" />
        </mxCell>
        <mxCell id="uH4h39baSTS1XD-_8lwv-3" value="" style="endArrow=none;html=1;rounded=0;exitX=0.321;exitY=0.843;exitDx=0;exitDy=0;exitPerimeter=0;" parent="1" source="uH4h39baSTS1XD-_8lwv-2" edge="1">
          <mxGeometry width="50" height="50" relative="1" as="geometry">
            <mxPoint x="602.5" y="390" as="sourcePoint" />
            <mxPoint x="570" y="320" as="targetPoint" />
          </mxGeometry>
        </mxCell>
        <mxCell id="uH4h39baSTS1XD-_8lwv-4" value="" style="endArrow=none;html=1;rounded=0;exitX=0.75;exitY=0;exitDx=0;exitDy=0;entryX=1;entryY=0;entryDx=0;entryDy=0;" parent="1" source="dRxTLHc9FrEJbW88lifj-77" target="uH4h39baSTS1XD-_8lwv-2" edge="1">
          <mxGeometry width="50" height="50" relative="1" as="geometry">
            <mxPoint x="415.5" y="510" as="sourcePoint" />
            <mxPoint x="514.5" y="438" as="targetPoint" />
          </mxGeometry>
        </mxCell>
        <mxCell id="uH4h39baSTS1XD-_8lwv-5" value="User_ID" style="ellipse;whiteSpace=wrap;html=1;align=center;direction=west;" parent="1" vertex="1">
          <mxGeometry x="680" y="250" width="70" height="30" as="geometry" />
        </mxCell>
        <mxCell id="uH4h39baSTS1XD-_8lwv-6" value="Listing_ID" style="ellipse;whiteSpace=wrap;html=1;align=center;direction=west;" parent="1" vertex="1">
          <mxGeometry x="640" y="349" width="70" height="30" as="geometry" />
        </mxCell>
        <mxCell id="uH4h39baSTS1XD-_8lwv-7" value="&lt;u&gt;Wish_ID&lt;/u&gt;" style="ellipse;whiteSpace=wrap;html=1;align=center;direction=west;" parent="1" vertex="1">
          <mxGeometry x="545" y="240" width="70" height="30" as="geometry" />
        </mxCell>
        <mxCell id="uH4h39baSTS1XD-_8lwv-8" value="" style="endArrow=none;html=1;rounded=0;entryX=0.629;entryY=0.925;entryDx=0;entryDy=0;entryPerimeter=0;" parent="1" source="uH4h39baSTS1XD-_8lwv-1" target="uH4h39baSTS1XD-_8lwv-6" edge="1">
          <mxGeometry width="50" height="50" relative="1" as="geometry">
            <mxPoint x="640" y="414" as="sourcePoint" />
            <mxPoint x="750" y="414" as="targetPoint" />
          </mxGeometry>
        </mxCell>
        <mxCell id="uH4h39baSTS1XD-_8lwv-9" value="" style="endArrow=none;html=1;rounded=0;entryX=1.01;entryY=0.255;entryDx=0;entryDy=0;entryPerimeter=0;exitX=0.75;exitY=0;exitDx=0;exitDy=0;" parent="1" source="uH4h39baSTS1XD-_8lwv-1" target="uH4h39baSTS1XD-_8lwv-5" edge="1">
          <mxGeometry width="50" height="50" relative="1" as="geometry">
            <mxPoint x="711" y="300" as="sourcePoint" />
            <mxPoint x="750" y="331" as="targetPoint" />
          </mxGeometry>
        </mxCell>
        <mxCell id="uH4h39baSTS1XD-_8lwv-10" value="" style="endArrow=none;html=1;rounded=0;entryX=0.319;entryY=0.107;entryDx=0;entryDy=0;entryPerimeter=0;exitX=0.351;exitY=-0.16;exitDx=0;exitDy=0;exitPerimeter=0;" parent="1" source="uH4h39baSTS1XD-_8lwv-1" target="uH4h39baSTS1XD-_8lwv-7" edge="1">
          <mxGeometry width="50" height="50" relative="1" as="geometry">
            <mxPoint x="654.5" y="230" as="sourcePoint" />
            <mxPoint x="695.5" y="202" as="targetPoint" />
          </mxGeometry>
        </mxCell>
        <mxCell id="uH4h39baSTS1XD-_8lwv-11" value="Category" style="ellipse;whiteSpace=wrap;html=1;align=center;direction=west;" parent="1" vertex="1">
          <mxGeometry x="730" y="572" width="70" height="30" as="geometry" />
        </mxCell>
        <mxCell id="uH4h39baSTS1XD-_8lwv-12" value="" style="endArrow=none;html=1;rounded=0;entryX=1;entryY=0.5;entryDx=0;entryDy=0;exitX=1;exitY=0.25;exitDx=0;exitDy=0;" parent="1" source="v6AVbfhbP2e-ezpRu952-5" target="uH4h39baSTS1XD-_8lwv-11" edge="1">
          <mxGeometry width="50" height="50" relative="1" as="geometry">
            <mxPoint x="690" y="580" as="sourcePoint" />
            <mxPoint x="725" y="520" as="targetPoint" />
          </mxGeometry>
        </mxCell>
        <mxCell id="uH4h39baSTS1XD-_8lwv-13" value="Category" style="rounded=0;whiteSpace=wrap;html=1;" parent="1" vertex="1">
          <mxGeometry x="-220" y="1650" width="100" height="20" as="geometry" />
        </mxCell>
        <mxCell id="uH4h39baSTS1XD-_8lwv-14" value="&lt;font style=&quot;font-size: 18px;&quot;&gt;1&lt;/font&gt;" style="text;html=1;align=center;verticalAlign=middle;whiteSpace=wrap;rounded=0;" parent="1" vertex="1">
          <mxGeometry x="370" y="410" width="60" height="30" as="geometry" />
        </mxCell>
        <mxCell id="uH4h39baSTS1XD-_8lwv-15" value="&lt;font style=&quot;font-size: 18px;&quot;&gt;N&lt;/font&gt;" style="text;html=1;align=center;verticalAlign=middle;whiteSpace=wrap;rounded=0;" parent="1" vertex="1">
          <mxGeometry x="480" y="379" width="60" height="30" as="geometry" />
        </mxCell>
        <mxCell id="Y7NYN-Efa4VLj4OweaV_-1" value="&lt;b&gt;WISHLIST&lt;/b&gt;" style="text;html=1;align=center;verticalAlign=middle;resizable=0;points=[];autosize=1;strokeColor=none;fillColor=none;" vertex="1" parent="1">
          <mxGeometry x="-537.5" y="1760" width="80" height="30" as="geometry" />
        </mxCell>
        <mxCell id="Y7NYN-Efa4VLj4OweaV_-2" value="&lt;u&gt;Wish_ID&lt;/u&gt;" style="rounded=0;whiteSpace=wrap;html=1;" vertex="1" parent="1">
          <mxGeometry x="-535" y="1790" width="90" height="20" as="geometry" />
        </mxCell>
        <mxCell id="Y7NYN-Efa4VLj4OweaV_-3" value="User_ID" style="rounded=0;whiteSpace=wrap;html=1;" vertex="1" parent="1">
          <mxGeometry x="-446.25" y="1790" width="100" height="20" as="geometry" />
        </mxCell>
        <mxCell id="Y7NYN-Efa4VLj4OweaV_-4" value="Listing_ID" style="rounded=0;whiteSpace=wrap;html=1;" vertex="1" parent="1">
          <mxGeometry x="-346.25" y="1790" width="100" height="20" as="geometry" />
        </mxCell>
        <mxCell id="Y7NYN-Efa4VLj4OweaV_-6" style="edgeStyle=orthogonalEdgeStyle;rounded=0;orthogonalLoop=1;jettySize=auto;html=1;entryX=0.1;entryY=0;entryDx=0;entryDy=0;entryPerimeter=0;" edge="1" parent="1" target="JFSD5BFborrNH-VHxR0L-30">
          <mxGeometry relative="1" as="geometry">
            <mxPoint x="-510" y="1410" as="targetPoint" />
            <Array as="points">
              <mxPoint x="-400" y="1757" />
              <mxPoint x="-570" y="1757" />
              <mxPoint x="-570" y="1390" />
              <mxPoint x="-520" y="1390" />
            </Array>
            <mxPoint x="-400" y="1790" as="sourcePoint" />
          </mxGeometry>
        </mxCell>
        <mxCell id="Y7NYN-Efa4VLj4OweaV_-7" style="edgeStyle=orthogonalEdgeStyle;rounded=0;orthogonalLoop=1;jettySize=auto;html=1;" edge="1" parent="1" target="JFSD5BFborrNH-VHxR0L-35">
          <mxGeometry relative="1" as="geometry">
            <mxPoint x="-530" y="1600" as="targetPoint" />
            <Array as="points">
              <mxPoint x="-300" y="1750" />
              <mxPoint x="-560" y="1750" />
              <mxPoint x="-560" y="1600" />
            </Array>
            <mxPoint x="-300" y="1790" as="sourcePoint" />
          </mxGeometry>
        </mxCell>
      </root>
    </mxGraphModel>
  </diagram>
</mxfile>
